<svg xmlns="http://www.w3.org/2000/svg" version="1.1" xmlns:xlink="http://www.w3.org/1999/xlink" xmlns:svgjs="http://svgjs.dev/svgjs" width="1000" height="398" viewBox="0 0 1000 398"><g transform="matrix(1,0,0,1,-0.6060606060606233,-0.32723420823853644)"><svg viewBox="0 0 396 158" data-background-color="#ffffff" preserveAspectRatio="xMidYMid meet" height="398" width="1000" xmlns="http://www.w3.org/2000/svg" xmlns:xlink="http://www.w3.org/1999/xlink"><g id="tight-bounds" transform="matrix(1,0,0,1,0.2400000000000091,0.12990704749168458)"><svg viewBox="0 0 395.52 157.74018590501663" height="157.74018590501663" width="395.52"><g><svg viewBox="0 0 788.8615106017222 314.61155272964174" height="157.74018590501663" width="395.52"><g transform="matrix(1,0,0,1,393.3415106017223,81.42262327035833)"><svg viewBox="0 0 395.5199999999999 151.76630618892509" height="151.76630618892509" width="395.5199999999999"><g id="textblocktransform"><svg viewBox="0 0 395.5199999999999 151.76630618892509" height="151.76630618892509" width="395.5199999999999" id="textblock"><g><svg viewBox="0 0 395.5199999999999 151.76630618892509" height="151.76630618892509" width="395.5199999999999"><g transform="matrix(1,0,0,1,0,0)"><svg width="395.5199999999999" viewBox="0 -29.45 76.75 29.45" height="151.76630618892509" data-palette-color="#915eff"><path d="M25.55 0L13.5 0 0-29.35 10.55-29.35 17.95-11.65 19.3-7.55 19.75-7.55 21.05-11.65 28.6-29.35 38.9-29.35 38.1-26.35 25.55 0ZM67.7 0L42.9 0 42.9-29.45 65.7-29.45Q70.4-29.45 72.55-27.58 74.7-25.7 74.7-23.05L74.7-23.05 74.7-21.55Q74.7-19.5 73.82-18.18 72.95-16.85 71.95-16.3L71.95-16.3Q74.15-15.6 75.45-13.88 76.75-12.15 76.75-9.35L76.75-9.35 76.75-8.45Q76.75-6.95 76.4-5.45 76.05-3.95 75.07-2.73 74.1-1.5 72.32-0.75 70.55 0 67.7 0L67.7 0ZM52.65-22.6L52.65-18.1 62.65-18.1Q63.95-18.1 64.45-18.65 64.95-19.2 64.95-20.15L64.95-20.15 64.95-20.65Q64.95-21.7 64.45-22.15 63.95-22.6 62.2-22.6L62.2-22.6 52.65-22.6ZM52.65-11.75L52.65-6.85 64.7-6.85Q66-6.85 66.5-7.33 67-7.8 67-8.85L67-8.85 67-9.75Q67-10.7 66.35-11.23 65.7-11.75 64.1-11.75L64.1-11.75 52.65-11.75Z" opacity="1" transform="matrix(1,0,0,1,0,0)" fill="#915eff" class="wordmark-text-0" data-fill-palette-color="primary" id="text-0"></path></svg></g></svg></g></svg></g></svg></g><g><svg viewBox="0 0 357.5131281018656 314.61155272964174" height="314.61155272964174" width="357.5131281018656"><g><svg xmlns="http://www.w3.org/2000/svg" xmlns:xlink="http://www.w3.org/1999/xlink" version="1.1" x="0" y="0" viewBox="0 6 100 88" enable-background="new 0 0 100 100" xml:space="preserve" height="314.61155272964174" width="357.5131281018656" class="icon-icon-0" data-fill-palette-color="accent" id="icon-0"><g fill="#915eff" data-fill-palette-color="accent"><path d="M41.751 59.098v6.119L20 55.789v-5.232l21.751-9.427v6.162l-15.156 5.839L41.751 59.098z" fill="#915eff" data-fill-palette-color="accent"></path><path d="M55.2 41l-6.055 24.93c-0.201 0.821-0.377 1.471-0.529 1.946-0.151 0.476-0.382 0.849-0.691 1.112-0.31 0.268-0.761 0.4-1.352 0.4-1.47 0-2.206-0.636-2.206-1.902 0-0.332 0.145-1.16 0.433-2.486l6.033-24.93c0.317-1.326 0.619-2.234 0.907-2.724 0.289-0.49 0.851-0.735 1.688-0.735 0.721 0 1.271 0.173 1.653 0.519 0.382 0.346 0.573 0.822 0.573 1.427C55.654 39.004 55.502 39.818 55.2 41z" fill="#915eff" data-fill-palette-color="accent"></path><path d="M80 55.789L58.249 65.26v-6.119l15.2-5.967-15.2-5.882v-6.076L80 50.6V55.789z" fill="#915eff" data-fill-palette-color="accent"></path></g><path d="M94 6H6c-3.313 0-6 2.687-6 6v76c0 3.313 2.687 6 6 6h88c3.314 0 6-2.688 6-6V12C100 8.686 97.314 6 94 6zM79 10c2.205 0 4 1.794 4 4s-1.795 4-4 4-4-1.794-4-4S76.795 10 79 10zM68 10c2.205 0 4 1.794 4 4s-1.795 4-4 4-4-1.794-4-4S65.795 10 68 10zM94 88H6V22h88V88zM90 18c-2.205 0-4-1.794-4-4s1.795-4 4-4 4 1.794 4 4S92.205 18 90 18z" fill="#915eff" data-fill-palette-color="accent"></path></svg></g></svg></g></svg></g><defs></defs></svg><rect width="395.52" height="157.74018590501663" fill="none" stroke="none" visibility="hidden"></rect></g></svg></g></svg>